Coordinates
version=1
nRows=24
nColumns=24
inDegrees=yes

Units are S.I. units (second, meters, Newtons, ...)
Angles are in degrees.

endheader
time	pelvis_tilt	pelvis_list	pelvis_rotation	pelvis_tx	pelvis_ty	pelvis_tz	hip_flexion_r	hip_adduction_r	hip_rotation_r	knee_angle_r	ankle_angle_r	subtalar_angle_r	mtp_angle_r	hip_flexion_l	hip_adduction_l	hip_rotation_l	knee_angle_l	ankle_angle_l	subtalar_angle_l	mtp_angle_l	lumbar_extension	lumbar_bending	lumbar_rotation
      1.38000000	     92.32489386	     36.01391884	    -91.23792255	      1.02459852	      0.28456547	      1.07665335	     23.77910601	     -7.77790005	     -6.37630326	    -15.71833703	    -13.00647424	      0.00000000	      0.00000000	     13.63500240	     -6.30573880	     -4.33540876	    -70.78294806	    -11.60616717	      0.00000000	      0.00000000	      0.00000000	      0.00000000	      0.00000000
      1.39000000	     92.31323609	     36.03223972	    -91.24102085	      1.02452468	      0.28458281	      1.07669661	     23.82468613	     -7.75724180	     -6.44863749	    -15.73216414	    -13.04074609	      0.00000000	      0.00000000	     13.65197022	     -6.31409553	     -4.33820406	    -70.77320394	    -11.62116859	      0.00000000	      0.00000000	      0.00000000	      0.00000000	      0.00000000
      1.40000000	     92.30144439	     36.04679057	    -91.24439403	      1.02447226	      0.28459494	      1.07672342	     23.86227608	     -7.73823751	     -6.51240527	    -15.74490929	    -13.08165400	      0.00000000	      0.00000000	     13.66406217	     -6.32142493	     -4.34052166	    -70.76361156	    -11.63418469	      0.00000000	      0.00000000	      0.00000000	      0.00000000	      0.00000000
      1.41000000	     92.29173465	     36.05545463	    -91.24600567	      1.02445900	      0.28459525	      1.07671938	     23.88432812	     -7.72600829	     -6.55366541	    -15.75348284	    -13.12220250	      0.00000000	      0.00000000	     13.67032422	     -6.32639734	     -4.34074602	    -70.75688142	    -11.64395922	      0.00000000	      0.00000000	      0.00000000	      0.00000000	      0.00000000
      1.42000000	     92.28722715	     36.05528639	    -91.24373326	      1.02445854	      0.28459577	      1.07670779	     23.88816546	     -7.72255350	     -6.56510266	    -15.75417151	    -13.15495919	      0.00000000	      0.00000000	     13.67000415	     -6.32763613	     -4.33795111	    -70.75523564	    -11.64986079	      0.00000000	      0.00000000	      0.00000000	      0.00000000	      0.00000000
      1.43000000	     92.28956476	     36.04539726	    -91.23709976	      1.02444893	      0.28460251	      1.07670849	     23.87473034	     -7.72809716	     -6.54848101	    -15.74502184	    -13.17467108	      0.00000000	      0.00000000	     13.66303638	     -6.32467183	     -4.33228493	    -70.75945047	    -11.65191687	      0.00000000	      0.00000000	      0.00000000	      0.00000000	      0.00000000
      1.44000000	     92.29745482	     36.02864494	    -91.22811258	      1.02444386	      0.28460460	      1.07671389	     23.84708593	     -7.74208170	     -6.51410605	    -15.72755922	    -13.17998386	      0.00000000	      0.00000000	     13.65048008	     -6.31852023	     -4.32497152	    -70.76839797	    -11.65075550	      0.00000000	      0.00000000	      0.00000000	      0.00000000	      0.00000000
      1.45000000	     92.30767119	     36.01002055	    -91.22030021	      1.02447275	      0.28459268	      1.07670444	     23.81100860	     -7.76182836	     -6.47786494	    -15.70619449	    -13.17344568	      0.00000000	      0.00000000	     13.63439342	     -6.31114682	     -4.31811050	    -70.77920534	    -11.64750445	      0.00000000	      0.00000000	      0.00000000	      0.00000000	      0.00000000
      1.46000000	     92.31720796	     35.99335487	    -91.21664616	      1.02453482	      0.28457566	      1.07668169	     23.77609247	     -7.78112181	     -6.45637920	    -15.68584849	    -13.15981776	      0.00000000	      0.00000000	     13.61720209	     -6.30432243	     -4.31422045	    -70.78816815	    -11.64359665	      0.00000000	      0.00000000	      0.00000000	      0.00000000	      0.00000000
      1.47000000	     92.32412673	     35.98010028	    -91.21825447	      1.02458908	      0.28456613	      1.07666824	     23.75350981	     -7.79230082	     -6.46115256	    -15.67013974	    -13.14364843	      0.00000000	      0.00000000	     13.60116882	     -6.29907582	     -4.31525633	    -70.79229857	    -11.64042664	      0.00000000	      0.00000000	      0.00000000	      0.00000000	      0.00000000
      1.48000000	     92.32721443	     35.97079478	    -91.22431765	      1.02459245	      0.28456488	      1.07667855	     23.75052253	     -7.79085653	     -6.49392593	    -15.66136396	    -13.12735987	      0.00000000	      0.00000000	     13.58831279	     -6.29604823	     -4.32142100	    -70.79081615	    -11.63894459	      0.00000000	      0.00000000	      0.00000000	      0.00000000	      0.00000000
      1.49000000	     92.32598637	     35.96621087	    -91.23246292	      1.02453818	      0.28457067	      1.07671127	     23.76649848	     -7.77835093	     -6.54595375	    -15.66120203	    -13.11066429	      0.00000000	      0.00000000	     13.58043771	     -6.29585441	     -4.33077024	    -70.78562970	    -11.63937628	      0.00000000	      0.00000000	      0.00000000	      0.00000000	      0.00000000
      1.50000000	     92.32080400	     35.96709607	    -91.23928171	      1.02446777	      0.28458017	      1.07674620	     23.79325785	     -7.76197562	     -6.60221750	    -15.67112628	    -13.09150772	      0.00000000	      0.00000000	     13.57862897	     -6.29872280	     -4.34008772	    -70.78036556	    -11.64120930	      0.00000000	      0.00000000	      0.00000000	      0.00000000	      0.00000000
      1.51000000	     92.31331750	     35.97274332	    -91.24133041	      1.02443596	      0.28458433	      1.07675318	     23.81962652	     -7.75073453	     -6.64908592	    -15.69223991	    -13.06814889	      0.00000000	      0.00000000	     13.58233400	     -6.30375747	     -4.34640935	    -70.77841170	    -11.64345734	      0.00000000	      0.00000000	      0.00000000	      0.00000000	      0.00000000
      1.52000000	     92.30699815	     35.97961558	    -91.23671088	      1.02445275	      0.28458237	      1.07673461	     23.83719922	     -7.75053580	     -6.68169637	    -15.72513346	    -13.04148286	      0.00000000	      0.00000000	     13.58892995	     -6.30868059	     -4.34826124	    -70.78113239	    -11.64508284	      0.00000000	      0.00000000	      0.00000000	      0.00000000	      0.00000000
      1.53000000	     92.30584119	     35.98281434	    -91.22689463	      1.02448010	      0.28458497	      1.07672974	     23.84242408	     -7.76257802	     -6.70664434	    -15.77089826	    -13.01637898	      0.00000000	      0.00000000	     13.59426354	     -6.31050044	     -4.34610914	    -70.78735639	    -11.64539035	      0.00000000	      0.00000000	      0.00000000	      0.00000000	      0.00000000
      1.54000000	     92.31149750	     35.97967979	    -91.21718220	      1.02449225	      0.28459357	      1.07675178	     23.83451428	     -7.78561798	     -6.73793445	    -15.83291080	    -13.00091086	      0.00000000	      0.00000000	     13.59394359	     -6.30671567	     -4.34204736	    -70.79428335	    -11.64423688	      0.00000000	      0.00000000	      0.00000000	      0.00000000	      0.00000000
      1.55000000	     92.32229038	     35.97064571	    -91.21408989	      1.02450400	      0.28459677	      1.07676618	     23.81402364	     -7.81766713	     -6.78811940	    -15.91736403	    -13.00301944	      0.00000000	      0.00000000	     13.58487903	     -6.29635220	     -4.33897024	    -70.79900290	    -11.64199373	      0.00000000	      0.00000000	      0.00000000	      0.00000000	      0.00000000
      1.56000000	     92.33543563	     35.95649527	    -91.22092891	      1.02452165	      0.28460648	      1.07676099	     23.78370802	     -7.85491089	     -6.85881567	    -16.03211662	    -13.02502565	      0.00000000	      0.00000000	     13.56648795	     -6.28072881	     -4.33934740	    -70.79984061	    -11.63928111	      0.00000000	      0.00000000	      0.00000000	      0.00000000	      0.00000000
      1.57000000	     92.34833005	     35.93785550	    -91.23560657	      1.02452214	      0.28464982	      1.07676828	     23.74655626	     -7.89193351	     -6.93435926	    -16.18612520	    -13.05726498	      0.00000000	      0.00000000	     13.54129094	     -6.26394321	     -4.34397756	    -70.79716049	    -11.63658391	      0.00000000	      0.00000000	      0.00000000	      0.00000000	      0.00000000
      1.58000000	     92.35740159	     35.91794676	    -91.25193949	      1.02450181	      0.28470288	      1.07679348	     23.70087339	     -7.92413964	     -6.98136253	    -16.38969815	    -13.07288817	      0.00000000	      0.00000000	     13.51469737	     -6.25239840	     -4.35156829	    -70.79343577	    -11.63394880	      0.00000000	      0.00000000	      0.00000000	      0.00000000	      0.00000000
      1.59000000	     92.35902789	     35.90232041	    -91.26199523	      1.02449665	      0.28470253	      1.07680205	     23.63981381	     -7.94698982	     -6.95539919	    -16.65288505	    -13.02651443	      0.00000000	      0.00000000	     13.49368973	     -6.25303015	     -4.35956337	    -70.79258673	    -11.63094136	      0.00000000	      0.00000000	      0.00000000	      0.00000000	      0.00000000
      1.60000000	     92.35202916	     35.89537465	    -91.25858070	      1.02453953	      0.28462869	      1.07677265	     23.55569690	     -7.95326581	     -6.81225638	    -16.98232331	    -12.85945070	      0.00000000	      0.00000000	     13.48478991	     -6.27134088	     -4.36552165	    -70.79880321	    -11.62687555	      0.00000000	      0.00000000	      0.00000000	      0.00000000	      0.00000000
      1.61000000	     92.33670131	     35.89898211	    -91.23825626	      1.02462640	      0.28450617	      1.07670826	     23.44259558	     -7.93491495	     -6.51856195	    -17.37987953	    -12.51290126	      0.00000000	      0.00000000	     13.49244436	     -6.31053738	     -4.36807979	    -70.81524280	    -11.62118939	      0.00000000	      0.00000000	      0.00000000	      0.00000000	      0.00000000
